<svg width="270" height="197" viewBox="0 0 270 197" fill="none" xmlns="http://www.w3.org/2000/svg">
<g clip-path="url(#clip0)">
<path d="M258.501 49.0964H124.592C111.439 49.0964 100.775 59.8629 100.775 73.1433V156.377C100.767 157.855 101.051 159.32 101.61 160.688C102.169 162.057 102.992 163.301 104.033 164.352C105.073 165.402 106.31 166.237 107.672 166.809C109.035 167.381 110.498 167.679 111.976 167.686H197.015C199.846 177.481 206.947 190.982 224.836 197L219.787 167.686H258.501C259.98 167.679 261.442 167.381 262.805 166.809C264.168 166.237 265.405 165.402 266.445 164.352C267.485 163.301 268.308 162.057 268.867 160.688C269.426 159.32 269.71 157.855 269.702 156.377V60.406C269.71 58.9279 269.426 57.4628 268.867 56.0944C268.308 54.726 267.485 53.4811 266.445 52.4309C265.405 51.3807 264.168 50.5456 262.805 49.9735C261.442 49.4013 259.98 49.1033 258.501 49.0964Z" fill="#E4E4E4"/>
<path d="M256.25 51.902H126.27C123.234 51.902 120.228 52.5 117.423 53.6619C114.618 54.8237 112.069 56.5266 109.922 58.6734C107.775 60.8202 106.073 63.3688 104.911 66.1738C103.749 68.9787 103.151 71.985 103.151 75.021V155.039C103.151 157.92 104.295 160.683 106.333 162.72C108.37 164.757 111.133 165.902 114.014 165.902H196.561C199.308 175.318 206.21 188.297 223.563 194.083L218.649 165.911H256.234C259.115 165.911 261.878 164.766 263.916 162.729C265.953 160.692 267.097 157.929 267.097 155.048V62.7741C267.1 59.8942 265.958 57.1312 263.924 55.0924C261.89 53.0537 259.13 51.9062 256.25 51.902Z" fill="#FAFAFA"/>
<path opacity="0.4" d="M222.606 72.6746H155.421V81.073H222.606V72.6746Z" fill="#303778"/>
<path opacity="0.4" d="M222.229 88.1805H197.034V96.5789H222.229V88.1805Z" fill="#303778"/>
<path opacity="0.4" d="M221.842 103.683H172.159V112.081H221.842V103.683Z" fill="#303778"/>
<path opacity="0.4" d="M221.46 119.189H160.529V127.587H221.46V119.189Z" fill="#303778"/>
<path opacity="0.4" d="M221.079 134.692H188.954V143.09H221.079V134.692Z" fill="#303778"/>
<path d="M11.1348 0H156.822C162.974 0 167.958 5.05582 167.958 11.2941V107.144C167.958 113.382 162.974 118.438 156.822 118.438H72.2763C69.4613 128.22 62.3913 141.715 44.6136 147.714L49.6353 118.438H11.1503C4.99887 118.438 0.0144404 113.382 0.0144404 107.144V11.2879C-0.00107773 5.05582 4.98336 0 11.1348 0Z" fill="#E4E4E4"/>
<path d="M12.8102 2.93909H155.028C157.909 2.93909 160.672 4.08354 162.709 6.1207C164.746 8.15785 165.891 10.9208 165.891 13.8018V106.076C165.891 108.957 164.746 111.72 162.709 113.757C160.672 115.794 157.909 116.939 155.028 116.939H72.4993C69.7526 126.355 62.8501 139.334 45.4977 145.119L50.3983 116.939H12.8102C9.92926 116.939 7.16628 115.794 5.12913 113.757C3.09197 111.72 1.94751 108.957 1.94751 106.076V13.8111C1.94629 12.3838 2.22636 10.9703 2.77171 9.65126C3.31707 8.33226 4.11702 7.13367 5.12583 6.12399C6.13465 5.11431 7.33256 4.31334 8.65109 3.76685C9.96963 3.22037 11.3829 2.93909 12.8102 2.93909Z" fill="white"/>
<path d="M117.512 20.6733H50.3274V29.0718H117.512V20.6733Z" fill="#6876E8"/>
<path d="M75.9074 36.1759H50.7122V44.5743H75.9074V36.1759Z" fill="#6876E8"/>
<path d="M100.775 51.6785H51.0923V60.0769H100.775V51.6785Z" fill="#6876E8"/>
<path d="M112.408 67.1844H51.4771V75.5829H112.408V67.1844Z" fill="#6876E8"/>
<path d="M83.9821 82.6869H51.8564V91.0853H83.9821V82.6869Z" fill="#6876E8"/>
</g>
<defs>
<clipPath id="clip0">
<rect width="269.706" height="197" fill="white"/>
</clipPath>
</defs>
</svg>
