<svg width="189" height="222" viewBox="0 0 189 222" fill="none" xmlns="http://www.w3.org/2000/svg">
<g clip-path="url(#clip0)">
<g opacity="0.5">
<path opacity="0.5" d="M107.302 0.159302L4.22836 0.409696C3.10519 0.411958 2.02889 0.86011 1.23602 1.65565C0.443152 2.45118 -0.00138499 3.52899 0.000125909 4.65216L0.469612 194.647C0.471105 195.203 0.582175 195.754 0.796473 196.267C1.01077 196.781 1.3241 197.247 1.71858 197.639C2.11306 198.032 2.58095 198.343 3.09556 198.554C3.61016 198.766 4.16138 198.874 4.71776 198.872L107.792 198.622C108.915 198.619 109.991 198.17 110.783 197.374C111.576 196.578 112.019 195.5 112.017 194.376L111.539 4.38185C111.535 3.26065 111.087 2.18667 110.293 1.39519C109.499 0.603716 108.424 0.159295 107.302 0.159302Z" fill="#7D7C7C"/>
<path opacity="0.5" d="M106.157 -0.00241961L5.38573 0.243813C3.24226 0.24905 1.50888 1.99092 1.51412 4.13438L1.97384 192.276C1.97908 194.42 3.72095 196.153 5.86441 196.148L106.636 195.901C108.78 195.896 110.513 194.154 110.508 192.011L110.048 3.86918C110.043 1.72572 108.301 -0.00765709 106.157 -0.00241961Z" fill="white"/>
<path opacity="0.5" d="M107.448 54.2842L107.34 9.04261C107.337 7.94963 106.9 6.90257 106.125 6.13158C105.35 5.36059 104.301 4.92877 103.208 4.93104L83.0488 4.97941C82.7403 7.05762 81.6983 8.95684 80.1113 10.3336C78.5242 11.7103 76.4969 12.4736 74.396 12.4855L36.9081 12.5766C34.8071 12.5751 32.776 11.8217 31.1821 10.4528C29.5883 9.08392 28.537 7.18984 28.2183 5.11314L8.36037 5.16151C7.26738 5.16453 6.22032 5.60141 5.44933 6.37614C4.67834 7.15086 4.24652 8.20002 4.24879 9.29301L4.35976 54.9159L4.68129 187.129C4.68656 188.222 5.12561 189.268 5.90194 190.038C6.67826 190.807 7.72833 191.237 8.82132 191.232L103.669 191.002C104.759 190.996 105.802 190.559 106.57 189.786C107.338 189.014 107.769 187.968 107.769 186.879L107.448 54.2842Z" fill="#FAFAFA"/>
<path opacity="0.5" d="M66.3203 7.2156L43.2753 7.56153C42.9611 7.56624 42.7101 7.82482 42.7148 8.13908L42.7204 8.51178C42.7252 8.82604 42.9837 9.07697 43.298 9.07225L66.343 8.72633C66.6572 8.72161 66.9082 8.46303 66.9034 8.14877L66.8979 7.77607C66.8931 7.46181 66.6346 7.21088 66.3203 7.2156Z" fill="#DBDBDB"/>
<path opacity="0.5" d="M72.0514 8.64064C72.5526 8.63311 72.9529 8.22068 72.9454 7.71944C72.9378 7.2182 72.5254 6.81796 72.0242 6.82549C71.5229 6.83301 71.1227 7.24545 71.1302 7.74669C71.1377 8.24793 71.5502 8.64816 72.0514 8.64064Z" fill="#DBDBDB"/>
<path opacity="0.5" d="M97.7937 29.4553H47.2626V33.4844H97.7937V29.4553Z" fill="#A9ACC6"/>
<path opacity="0.5" d="M97.7937 37.5135H47.2626V41.5426H97.7937V37.5135Z" fill="#A9ACC6"/>
<path opacity="0.5" d="M22.2191 43.4262C27.4897 43.4262 31.7625 39.133 31.7625 33.8372C31.7625 28.5414 27.4897 24.2483 22.2191 24.2483C16.9484 24.2483 12.6757 28.5414 12.6757 33.8372C12.6757 39.133 16.9484 43.4262 22.2191 43.4262Z" fill="#F5F5F5"/>
<path opacity="0.5" d="M26.3313 40.5496H18.0541C17.657 40.5526 17.2665 40.6514 16.9157 40.8377C16.565 41.0239 16.2644 41.2921 16.0396 41.6194C17.8994 42.6865 20.0039 43.2536 22.1481 43.2656C24.2923 43.2775 26.403 42.7339 28.2747 41.6877C28.0645 41.3572 27.7786 41.0816 27.4406 40.8836C27.1027 40.6857 26.7224 40.5712 26.3313 40.5496Z" fill="#007AFF"/>
<path opacity="0.5" d="M18.1223 34.082C18.1223 34.082 16.9102 37.6103 16.2472 37.2802C16.2472 37.2802 22.6322 42.7946 28.2689 37.2802C27.5906 36.121 26.7757 35.0473 25.8418 34.082H18.1223Z" fill="#333333"/>
<path opacity="0.5" d="M22.2133 38.4952C24.833 38.4952 26.9566 36.3715 26.9566 33.7519C26.9566 31.1323 24.833 29.0087 22.2133 29.0087C19.5937 29.0087 17.4701 31.1323 17.4701 33.7519C17.4701 36.3715 19.5937 38.4952 22.2133 38.4952Z" fill="#333333"/>
<path opacity="0.1" d="M20.5462 38.9049H23.8554V40.191C23.8554 40.594 23.6953 40.9805 23.4104 41.2654C23.1254 41.5504 22.7389 41.7105 22.336 41.7105H22.0514C21.6484 41.7105 21.262 41.5504 20.977 41.2654C20.6921 40.9805 20.532 40.594 20.532 40.191V38.9049H20.5462Z" fill="black"/>
<path opacity="0.5" d="M20.8959 38.8252H23.5079C23.6007 38.8252 23.6898 38.8621 23.7554 38.9277C23.821 38.9933 23.8579 39.0824 23.8579 39.1752V40.1198C23.8579 40.5228 23.6978 40.9093 23.4129 41.1942C23.1279 41.4792 22.7415 41.6393 22.3385 41.6393H22.0539C21.6529 41.6363 21.2694 41.4749 20.9869 41.1902C20.7044 40.9056 20.5459 40.5209 20.5459 40.1198V39.1837C20.5447 39.137 20.553 39.0906 20.57 39.0472C20.5871 39.0037 20.6127 38.9641 20.6453 38.9307C20.6779 38.8973 20.7169 38.8708 20.7599 38.8526C20.803 38.8345 20.8492 38.8252 20.8959 38.8252Z" fill="#FDA57D"/>
<path opacity="0.1" d="M20.5551 39.3033C21.6226 39.6991 22.7967 39.6991 23.8642 39.3033V38.9192H20.5551V39.3033Z" fill="black"/>
<path opacity="0.5" d="M22.2133 39.5252C24.833 39.5252 26.9566 37.4016 26.9566 34.7819C26.9566 32.1623 24.833 30.0387 22.2133 30.0387C19.5937 30.0387 17.4701 32.1623 17.4701 34.7819C17.4701 37.4016 19.5937 39.5252 22.2133 39.5252Z" fill="#FDA57D"/>
<path opacity="0.5" d="M17.6823 32.9807H26.7249C26.7249 32.9807 25.9538 29.3301 22.5336 29.5663C19.1135 29.8024 17.6823 32.9807 17.6823 32.9807Z" fill="#333333"/>
<path opacity="0.5" d="M17.5702 35.408C17.8138 35.408 18.0112 35.0373 18.0112 34.58C18.0112 34.1227 17.8138 33.752 17.5702 33.752C17.3266 33.752 17.1292 34.1227 17.1292 34.58C17.1292 35.0373 17.3266 35.408 17.5702 35.408Z" fill="#FDA57D"/>
<path opacity="0.5" d="M26.8346 35.408C27.0782 35.408 27.2756 35.0373 27.2756 34.58C27.2756 34.1227 27.0782 33.752 26.8346 33.752C26.591 33.752 26.3936 34.1227 26.3936 34.58C26.3936 35.0373 26.591 35.408 26.8346 35.408Z" fill="#FDA57D"/>
<path opacity="0.1" d="M17.6823 33.106H26.7249C26.7249 33.106 25.9538 29.4554 22.5336 29.6915C19.1135 29.9277 17.6823 33.106 17.6823 33.106Z" fill="black"/>
<path opacity="0.5" d="M97.7937 60.1456H47.2626V64.1747H97.7937V60.1456Z" fill="#A9ACC6"/>
<path opacity="0.5" d="M97.7937 68.2037H47.2626V72.2328H97.7937V68.2037Z" fill="#A9ACC6"/>
<path opacity="0.5" d="M22.2191 74.1165C27.4897 74.1165 31.7625 69.8233 31.7625 64.5275C31.7625 59.2317 27.4897 54.9386 22.2191 54.9386C16.9484 54.9386 12.6757 59.2317 12.6757 64.5275C12.6757 69.8233 16.9484 74.1165 22.2191 74.1165Z" fill="#A9ACC6"/>
<path opacity="0.5" d="M97.7937 90.8359H47.2626V94.865H97.7937V90.8359Z" fill="#A9ACC6"/>
<path opacity="0.5" d="M97.7937 98.894H47.2626V102.923H97.7937V98.894Z" fill="#A9ACC6"/>
<path opacity="0.5" d="M22.2191 104.807C27.4897 104.807 31.7625 100.514 31.7625 95.2178C31.7625 89.922 27.4897 85.6289 22.2191 85.6289C16.9484 85.6289 12.6757 89.922 12.6757 95.2178C12.6757 100.514 16.9484 104.807 22.2191 104.807Z" fill="#A9ACC6"/>
<path opacity="0.5" d="M97.7937 121.526H47.2626V125.555H97.7937V121.526Z" fill="#A9ACC6"/>
<path opacity="0.5" d="M97.7937 129.584H47.2626V133.613H97.7937V129.584Z" fill="#A9ACC6"/>
<path opacity="0.5" d="M22.2191 135.497C27.4897 135.497 31.7625 131.204 31.7625 125.908C31.7625 120.612 27.4897 116.319 22.2191 116.319C16.9484 116.319 12.6757 120.612 12.6757 125.908C12.6757 131.204 16.9484 135.497 22.2191 135.497Z" fill="#A9ACC6"/>
<path opacity="0.5" d="M97.7937 152.217H47.2626V156.246H97.7937V152.217Z" fill="#A9ACC6"/>
<path opacity="0.5" d="M97.7937 160.275H47.2626V164.304H97.7937V160.275Z" fill="#A9ACC6"/>
<path opacity="0.5" d="M22.2191 166.187C27.4897 166.187 31.7625 161.894 31.7625 156.598C31.7625 151.303 27.4897 147.009 22.2191 147.009C16.9484 147.009 12.6757 151.303 12.6757 156.598C12.6757 161.894 16.9484 166.187 22.2191 166.187Z" fill="#A9ACC6"/>
</g>
<path d="M173.642 24.0293L70.5655 24.2797C69.4423 24.2827 68.3663 24.7316 67.574 25.5277C66.7816 26.3237 66.3378 27.4018 66.3401 28.525L66.8096 217.589C66.8111 218.146 66.9221 218.696 67.1364 219.21C67.3507 219.723 67.6641 220.189 68.0586 220.582C68.453 220.974 68.9209 221.285 69.4355 221.496C69.9501 221.708 70.5014 221.816 71.0577 221.815L174.137 221.564C175.259 221.56 176.332 221.111 177.123 220.316C177.914 219.522 178.358 218.446 178.357 217.325L177.888 28.2604C177.887 27.7038 177.776 27.1527 177.563 26.6388C177.349 26.1249 177.036 25.6581 176.642 25.2652C176.247 24.8723 175.78 24.5609 175.265 24.3488C174.75 24.1368 174.199 24.0282 173.642 24.0293Z" fill="url(#paint0_linear)"/>
<path d="M173.642 24.0293L70.5655 24.2797C69.4423 24.2827 68.3663 24.7316 67.574 25.5277C66.7816 26.3237 66.3378 27.4018 66.3401 28.525L66.8096 217.589C66.8111 218.146 66.9221 218.696 67.1364 219.21C67.3507 219.723 67.6641 220.189 68.0586 220.582C68.453 220.974 68.9209 221.285 69.4355 221.496C69.9501 221.708 70.5014 221.816 71.0577 221.815L174.137 221.564C175.259 221.56 176.332 221.111 177.123 220.316C177.914 219.522 178.358 218.446 178.357 217.325L177.888 28.2604C177.887 27.7038 177.776 27.1527 177.563 26.6388C177.349 26.1249 177.036 25.6581 176.642 25.2652C176.247 24.8723 175.78 24.5609 175.265 24.3488C174.75 24.1368 174.199 24.0282 173.642 24.0293Z" fill="#E4E4E4"/>
<path d="M172.496 22.937L71.7247 23.1833C69.5812 23.1885 67.8479 24.9304 67.8531 27.0738L68.3128 215.216C68.3181 217.359 70.0599 219.092 72.2034 219.087L172.975 218.841C175.119 218.836 176.852 217.094 176.847 214.95L176.387 26.8086C176.382 24.6652 174.64 22.9318 172.496 22.937Z" fill="white"/>
<path d="M173.787 77.5338L173.679 31.9707C173.676 30.8777 173.239 29.8307 172.464 29.0597C171.689 28.2887 170.64 27.8569 169.547 27.8591L149.382 27.9075C149.074 29.9857 148.032 31.8849 146.445 33.2617C144.858 34.6384 142.83 35.4017 140.729 35.4136L103.244 35.5047C101.143 35.5032 99.1122 34.7498 97.5183 33.3809C95.9245 32.012 94.8731 30.1179 94.5545 28.0412L74.6965 28.0896C73.6036 28.0926 72.5565 28.5295 71.7855 29.3042C71.0145 30.079 70.5827 31.1281 70.585 32.2211L70.6959 77.8439" fill="#FAFAFA"/>
<path d="M70.6962 77.8468L71.0177 210.06C71.0207 211.153 71.4576 212.2 72.2323 212.971C73.007 213.742 74.0562 214.174 75.1492 214.172L169.997 213.941C171.09 213.938 172.137 213.501 172.908 212.727C173.679 211.952 174.111 210.903 174.109 209.81L173.784 77.2151" fill="#FAFAFA"/>
<path d="M99.9642 46.8151H79.8132V66.9661H99.9642V46.8151Z" fill="#E0E0E0"/>
<g opacity="0.5">
<path opacity="0.5" d="M188.933 83.7054H55.8749V128.967H188.933V83.7054Z" fill="url(#paint1_linear)"/>
</g>
<g filter="url(#filter0_d)">
<path d="M187.351 85.5663H57.4591V127.416H187.351V85.5663Z" fill="white"/>
</g>
<path d="M159.794 101.065H109.263V105.094H159.794V101.065Z" fill="#6876E8"/>
<path d="M159.794 109.126H109.263V113.155H159.794V109.126Z" fill="#6876E8"/>
<path d="M159.794 145.706H109.263V149.735H159.794V145.706Z" fill="#E0E0E0"/>
<path d="M159.794 153.764H109.263V157.793H159.794V153.764Z" fill="#EEEEEE"/>
<path d="M145.843 62.9341H123.213V70.0646H145.843V62.9341Z" fill="#6876E8"/>
<path d="M84.2205 115.036C89.4912 115.036 93.7639 110.743 93.7639 105.447C93.7639 100.151 89.4912 95.858 84.2205 95.858C78.9498 95.858 74.6771 100.151 74.6771 105.447C74.6771 110.743 78.9498 115.036 84.2205 115.036Z" fill="#F5F5F5"/>
<path d="M88.3318 112.159H80.0518C79.6547 112.162 79.2641 112.261 78.9134 112.447C78.5627 112.634 78.2621 112.902 78.0372 113.229C79.8971 114.296 82.0016 114.863 84.1458 114.875C86.29 114.887 88.4007 114.344 90.2724 113.297C90.0625 112.967 89.777 112.692 89.4396 112.494C89.1021 112.296 88.7224 112.181 88.3318 112.159Z" fill="#007AFF"/>
<path d="M80.1236 105.695C80.1236 105.695 78.9115 109.223 78.2485 108.893C78.2485 108.893 84.6336 114.407 90.2703 108.893C89.5919 107.734 88.7771 106.66 87.8432 105.695H80.1236Z" fill="#333333"/>
<path d="M84.2147 110.108C86.8343 110.108 88.9579 107.984 88.9579 105.364C88.9579 102.745 86.8343 100.621 84.2147 100.621C81.5951 100.621 79.4714 102.745 79.4714 105.364C79.4714 107.984 81.5951 110.108 84.2147 110.108Z" fill="#333333"/>
<path opacity="0.1" d="M82.5475 110.517H85.8567V111.804C85.8567 112.207 85.6967 112.593 85.4117 112.878C85.1268 113.163 84.7403 113.323 84.3373 113.323H84.0528C83.6498 113.323 83.2633 113.163 82.9784 112.878C82.6934 112.593 82.5333 112.207 82.5333 111.804V110.517H82.5475Z" fill="black"/>
<path d="M82.8975 110.438H85.5096C85.6024 110.438 85.6914 110.475 85.7571 110.54C85.8227 110.606 85.8596 110.695 85.8596 110.788V111.724C85.86 111.924 85.8208 112.122 85.7445 112.307C85.6681 112.492 85.556 112.66 85.4146 112.801C85.2731 112.943 85.1052 113.055 84.9203 113.131C84.7354 113.207 84.5373 113.247 84.3373 113.246H84.0528C83.6498 113.246 83.2633 113.086 82.9784 112.801C82.6934 112.516 82.5333 112.13 82.5333 111.727V110.791C82.5333 110.745 82.5424 110.699 82.56 110.657C82.5776 110.614 82.6033 110.576 82.6358 110.543C82.6683 110.511 82.7069 110.485 82.7494 110.467C82.7918 110.45 82.8374 110.441 82.8833 110.441L82.8975 110.438Z" fill="#FDA57D"/>
<path opacity="0.1" d="M82.5537 110.907C83.6213 111.303 84.7953 111.303 85.8629 110.907V110.5H82.5537V110.907Z" fill="black"/>
<path d="M84.2147 111.135C86.8343 111.135 88.9579 109.011 88.9579 106.392C88.9579 103.772 86.8343 101.648 84.2147 101.648C81.5951 101.648 79.4714 103.772 79.4714 106.392C79.4714 109.011 81.5951 111.135 84.2147 111.135Z" fill="#FDA57D"/>
<path d="M79.6707 104.593H88.7133C88.7133 104.593 87.9422 100.943 84.522 101.179C81.1019 101.415 79.6707 104.593 79.6707 104.593Z" fill="#333333"/>
<path d="M79.5715 107.018C79.8151 107.018 80.0126 106.647 80.0126 106.19C80.0126 105.732 79.8151 105.362 79.5715 105.362C79.3279 105.362 79.1305 105.732 79.1305 106.19C79.1305 106.647 79.3279 107.018 79.5715 107.018Z" fill="#FDA57D"/>
<path d="M88.8331 107.018C89.0767 107.018 89.2742 106.647 89.2742 106.19C89.2742 105.732 89.0767 105.362 88.8331 105.362C88.5896 105.362 88.3921 105.732 88.3921 106.19C88.3921 106.647 88.5896 107.018 88.8331 107.018Z" fill="#FDA57D"/>
<path opacity="0.1" d="M79.6707 104.716H88.7133C88.7133 104.716 87.9422 101.065 84.522 101.301C81.1019 101.537 79.6707 104.716 79.6707 104.716Z" fill="black"/>
<path d="M90.4202 159.987C95.6909 159.987 99.9637 155.694 99.9637 150.398C99.9637 145.103 95.6909 140.809 90.4202 140.809C85.1496 140.809 80.8768 145.103 80.8768 150.398C80.8768 155.694 85.1496 159.987 90.4202 159.987Z" fill="#E0E0E0"/>
<path d="M90.4202 196.878C95.6909 196.878 99.9637 192.584 99.9637 187.289C99.9637 181.993 95.6909 177.7 90.4202 177.7C85.1496 177.7 80.8768 181.993 80.8768 187.289C80.8768 192.584 85.1496 196.878 90.4202 196.878Z" fill="#E0E0E0"/>
<path d="M159.794 181.356H109.263V185.385H159.794V181.356Z" fill="#E0E0E0"/>
<path d="M159.794 189.414H109.263V193.443H159.794V189.414Z" fill="#EEEEEE"/>
<path d="M159.794 46.8151H109.263V50.8441H159.794V46.8151Z" fill="#E0E0E0"/>
<path d="M159.794 54.876H109.263V58.905H159.794V54.876Z" fill="#E0E0E0"/>
<path d="M132.657 30.1582L109.612 30.5042C109.298 30.5089 109.047 30.7675 109.052 31.0817L109.058 31.4544C109.062 31.7687 109.321 32.0196 109.635 32.0149L132.68 31.669C132.994 31.6642 133.245 31.4057 133.241 31.0914L133.235 30.7187C133.23 30.4044 132.972 30.1535 132.657 30.1582Z" fill="#DBDBDB"/>
<path d="M138.389 31.5863C138.891 31.5788 139.291 31.1664 139.283 30.6651C139.276 30.1639 138.863 29.7636 138.362 29.7712C137.861 29.7787 137.461 30.1911 137.468 30.6924C137.476 31.1936 137.888 31.5938 138.389 31.5863Z" fill="#DBDBDB"/>
</g>
<defs>
<filter id="filter0_d" x="53.4591" y="85.5663" width="137.892" height="49.8498" filterUnits="userSpaceOnUse" color-interpolation-filters="sRGB">
<feFlood flood-opacity="0" result="BackgroundImageFix"/>
<feColorMatrix in="SourceAlpha" type="matrix" values="0 0 0 0 0 0 0 0 0 0 0 0 0 0 0 0 0 0 127 0"/>
<feOffset dy="4"/>
<feGaussianBlur stdDeviation="2"/>
<feColorMatrix type="matrix" values="0 0 0 0 0 0 0 0 0 0 0 0 0 0 0 0 0 0 0.1 0"/>
<feBlend mode="normal" in2="BackgroundImageFix" result="effect1_dropShadow"/>
<feBlend mode="normal" in="SourceGraphic" in2="effect1_dropShadow" result="shape"/>
</filter>
<linearGradient id="paint0_linear" x1="62546" y1="169417" x2="143192" y2="61562.3" gradientUnits="userSpaceOnUse">
<stop stop-color="#808080" stop-opacity="0.25"/>
<stop offset="0.54" stop-color="#808080" stop-opacity="0.12"/>
<stop offset="1" stop-color="#808080" stop-opacity="0.1"/>
</linearGradient>
<linearGradient id="paint1_linear" x1="57295" y1="20598" x2="57295" y2="13398.7" gradientUnits="userSpaceOnUse">
<stop stop-color="#808080" stop-opacity="0.25"/>
<stop offset="0.54" stop-color="#808080" stop-opacity="0.12"/>
<stop offset="1" stop-color="#808080" stop-opacity="0.1"/>
</linearGradient>
<clipPath id="clip0">
<rect width="188.933" height="221.812" fill="white"/>
</clipPath>
</defs>
</svg>
