<svg width="231" height="221" viewBox="0 0 231 221" fill="none" xmlns="http://www.w3.org/2000/svg">
<g clip-path="url(#clip0)">
<path d="M196.009 217.614H162.62V81.9315H224.968L196.009 217.614Z" fill="url(#paint0_linear)"/>
<path d="M196.009 217.614H162.62V81.9315H224.968L196.009 217.614Z" fill="#E2E2E2"/>
<path d="M194.345 217.614H161.617V81.9315H222.728L194.345 217.614Z" fill="#F5F5F5"/>
<path d="M133.94 -0.0120463L-0.000976562 37.4354L14.396 88.9302L148.337 51.4827L133.94 -0.0120463Z" fill="url(#paint1_linear)"/>
<path d="M133.94 -0.0120463L-0.000976562 37.4354L14.396 88.9302L148.337 51.4827L133.94 -0.0120463Z" fill="#E2E2E2"/>
<path d="M133.297 0.969412L1.59448 37.791L15.5302 87.6358L147.233 50.8142L133.297 0.969412Z" fill="#F4F4F4"/>
<path d="M75.4208 35.9984L42.2854 45.2625L42.9922 47.7907L76.1276 38.5267L75.4208 35.9984Z" fill="#F5F5F5"/>
<path d="M78.2472 46.1062L45.1118 55.3702L45.8187 57.8985L78.954 48.6344L78.2472 46.1062Z" fill="white"/>
<path d="M96.9449 35.428L43.6965 50.3153L44.4034 52.8435L97.6517 37.9563L96.9449 35.428Z" fill="white"/>
<path d="M31.5197 61.4437C34.7772 60.533 36.6796 57.154 35.7689 53.8965C34.8582 50.639 31.4791 48.7366 28.2217 49.6474C24.9642 50.5581 23.0618 53.9371 23.9725 57.1946C24.8832 60.452 28.2622 62.3545 31.5197 61.4437Z" fill="white"/>
<path d="M170.572 11.4742L39.6199 60.2269L58.5316 111.025L189.484 62.2721L170.572 11.4742Z" fill="url(#paint2_linear)"/>
<path d="M170.572 11.4742L39.6199 60.2269L58.5316 111.025L189.484 62.2721L170.572 11.4742Z" fill="#E2E2E2"/>
<path d="M169.588 13.363L41.428 61.076L59.4857 109.58L187.645 61.8669L169.588 13.363Z" fill="#F7F7F7"/>
<path d="M114.845 53.1107L82.6006 65.115L83.5165 67.5752L115.76 55.5709L114.845 53.1107Z" fill="#F5F5F5"/>
<path d="M118.508 62.9469L86.2642 74.9512L87.1801 77.4114L119.424 65.4071L118.508 62.9469Z" fill="white"/>
<path d="M136.952 50.7719L84.9795 70.1235L85.8983 72.5912L137.871 53.2396L136.952 50.7719Z" fill="white"/>
<path d="M73.2272 82.143C76.397 80.9629 78.01 77.4366 76.8299 74.2667C75.6498 71.0969 72.1234 69.4839 68.9536 70.664C65.7838 71.8441 64.1708 75.3704 65.3509 78.5403C66.531 81.7101 70.0573 83.3231 73.2272 82.143Z" fill="white"/>
<path d="M93.7811 45.965L84.22 99.6409L221.438 124.083L231 70.4073L93.7811 45.965Z" fill="url(#paint3_linear)"/>
<path d="M93.7811 45.965L84.22 99.6409L221.438 124.083L231 70.4073L93.7811 45.965Z" fill="#E2E2E2"/>
<path d="M229.071 71.2193L94.4375 47.2373L85.3612 98.1915L219.995 122.173L229.071 71.2193Z" fill="#FAFAFA"/>
<path d="M127.854 71.626L127.394 74.2104L161.267 80.2441L161.727 77.6596L127.854 71.626Z" fill="#F5F5F5"/>
<path d="M126.016 81.9632L125.556 84.5477L159.429 90.5814L159.889 87.9969L126.016 81.9632Z" fill="white"/>
<path d="M126.932 76.7947L126.472 79.3792L180.905 89.0752L181.366 86.4907L126.932 76.7947Z" fill="white"/>
<path d="M118.236 76.5758C118.83 73.2459 116.611 70.0655 113.281 69.4724C109.951 68.8792 106.771 71.0978 106.178 74.4278C105.584 77.7578 107.803 80.9381 111.133 81.5313C114.463 82.1244 117.643 79.9058 118.236 76.5758Z" fill="white"/>
<path d="M54.3973 80.3356L31.86 64.556H0.655518V80.3356V88.0655V220.113H195.679V80.3356H54.3973Z" fill="url(#paint4_linear)"/>
<path d="M55.2395 81.9316L33.0474 66.6144H2.32422V81.9316V89.4367V217.614H194.346V81.9316H55.2395Z" fill="white"/>
<path d="M150.823 185.593C150.826 186.201 150.587 186.786 150.159 187.218C149.731 187.65 149.149 187.895 148.54 187.898H48.1343C47.5259 187.895 46.9438 187.65 46.5157 187.218C46.0876 186.786 45.8486 186.201 45.8511 185.593V117.003C45.8486 116.394 46.0876 115.81 46.5157 115.378C46.9438 114.945 47.5259 114.701 48.1343 114.697H148.54C149.149 114.701 149.731 114.945 150.159 115.378C150.587 115.81 150.826 116.394 150.823 117.003" fill="url(#paint5_linear)"/>
<path d="M149.641 184.475C149.641 185.063 149.407 185.627 148.992 186.043C148.576 186.458 148.012 186.692 147.424 186.692H49.3329C48.745 186.692 48.1812 186.458 47.7655 186.043C47.3498 185.627 47.1162 185.063 47.1162 184.475V118.171C47.1162 117.583 47.3498 117.02 47.7655 116.604C48.1812 116.188 48.745 115.955 49.3329 115.955H147.411C147.999 115.955 148.563 116.188 148.979 116.604C149.395 117.02 149.628 117.583 149.628 118.171" fill="white"/>
<path d="M143.021 119.02H53.8247C52.2769 119.02 51.0222 120.274 51.0222 121.822V181.058C51.0222 182.606 52.2769 183.861 53.8247 183.861H143.021C144.568 183.861 145.823 182.606 145.823 181.058V121.822C145.823 120.274 144.568 119.02 143.021 119.02Z" fill="url(#paint6_linear)"/>
<path d="M141.754 120.6H54.99C53.4422 120.6 52.1875 121.855 52.1875 123.403V179.234C52.1875 180.782 53.4422 182.037 54.99 182.037H141.754C143.302 182.037 144.556 180.782 144.556 179.234V123.403C144.556 121.855 143.302 120.6 141.754 120.6Z" fill="white"/>
<path d="M47.0506 181.476L72.84 151.928C73.2847 151.418 73.8258 151.001 74.4322 150.701C75.0386 150.401 75.6983 150.224 76.3734 150.18C77.0485 150.136 77.7257 150.226 78.366 150.444C79.0063 150.663 79.5971 151.005 80.1044 151.453L87.3181 157.824C88.2403 158.638 89.424 159.094 90.6537 159.108C91.8835 159.123 93.0776 158.695 94.0188 157.904L116.091 139.353C117.106 138.497 118.414 138.068 119.739 138.156C121.064 138.244 122.303 138.842 123.197 139.825L150.281 169.636C151.035 170.465 151.496 171.519 151.595 172.635L152.64 184.393C152.704 185.103 152.619 185.818 152.39 186.493C152.162 187.168 151.796 187.788 151.315 188.314C150.834 188.84 150.248 189.26 149.596 189.547C148.944 189.834 148.239 189.982 147.526 189.982H50.9202C49.5858 189.982 48.304 189.462 47.3463 188.533C46.3887 187.603 45.8305 186.338 45.7902 185.004C45.7509 183.711 46.2011 182.451 47.0506 181.476Z" fill="#6876E8"/>
<path d="M63.3113 136.171C66.4698 136.171 69.0303 133.61 69.0303 130.452C69.0303 127.293 66.4698 124.733 63.3113 124.733C60.1528 124.733 57.5923 127.293 57.5923 130.452C57.5923 133.61 60.1528 136.171 63.3113 136.171Z" fill="#89FFFD"/>
</g>
<defs>
<linearGradient id="paint0_linear" x1="193.796" y1="217.614" x2="193.796" y2="81.9315" gradientUnits="userSpaceOnUse">
<stop stop-color="#808080" stop-opacity="0.25"/>
<stop offset="0.54" stop-color="#808080" stop-opacity="0.12"/>
<stop offset="1" stop-color="#808080" stop-opacity="0.1"/>
</linearGradient>
<linearGradient id="paint1_linear" x1="60466.7" y1="11149.8" x2="59163.2" y2="-4098.25" gradientUnits="userSpaceOnUse">
<stop stop-color="#808080" stop-opacity="0.25"/>
<stop offset="0.54" stop-color="#808080" stop-opacity="0.12"/>
<stop offset="1" stop-color="#808080" stop-opacity="0.1"/>
</linearGradient>
<linearGradient id="paint2_linear" x1="83466.7" y1="24590.2" x2="83466.7" y2="7549" gradientUnits="userSpaceOnUse">
<stop stop-color="#808080" stop-opacity="0.25"/>
<stop offset="0.54" stop-color="#808080" stop-opacity="0.12"/>
<stop offset="1" stop-color="#808080" stop-opacity="0.1"/>
</linearGradient>
<linearGradient id="paint3_linear" x1="46779.4" y1="67946" x2="49889" y2="33324.6" gradientUnits="userSpaceOnUse">
<stop stop-color="#808080" stop-opacity="0.25"/>
<stop offset="0.54" stop-color="#808080" stop-opacity="0.12"/>
<stop offset="1" stop-color="#808080" stop-opacity="0.1"/>
</linearGradient>
<linearGradient id="paint4_linear" x1="60457.9" y1="108191" x2="60457.9" y2="31776.4" gradientUnits="userSpaceOnUse">
<stop stop-color="#808080" stop-opacity="0.25"/>
<stop offset="0.54" stop-color="#808080" stop-opacity="0.12"/>
<stop offset="1" stop-color="#808080" stop-opacity="0.1"/>
</linearGradient>
<linearGradient id="paint5_linear" x1="98.3357" y1="187.898" x2="98.3357" y2="114.694" gradientUnits="userSpaceOnUse">
<stop stop-color="#B3B3B3" stop-opacity="0.25"/>
<stop offset="0.54" stop-color="#B3B3B3" stop-opacity="0.1"/>
<stop offset="1" stop-color="#B3B3B3" stop-opacity="0.05"/>
</linearGradient>
<linearGradient id="paint6_linear" x1="29515.2" y1="37767.1" x2="29515.2" y2="24489.5" gradientUnits="userSpaceOnUse">
<stop stop-color="#B3B3B3" stop-opacity="0.25"/>
<stop offset="0.54" stop-color="#B3B3B3" stop-opacity="0.1"/>
<stop offset="1" stop-color="#B3B3B3" stop-opacity="0.05"/>
</linearGradient>
<clipPath id="clip0">
<rect width="231" height="220.113" fill="white"/>
</clipPath>
</defs>
</svg>
