<svg width="277" height="60" viewBox="0 0 277 60" fill="none" xmlns="http://www.w3.org/2000/svg">
<path d="M87.294 41.306C84.982 41.306 82.9533 40.8073 81.208 39.81C79.4853 38.8127 78.1593 37.3847 77.23 35.526C76.3007 33.6673 75.836 31.4913 75.836 28.998C75.836 26.5047 76.3007 24.34 77.23 22.504C78.1593 20.6453 79.4853 19.2173 81.208 18.22C82.9533 17.2227 84.982 16.724 87.294 16.724C88.79 16.724 90.1953 16.9507 91.51 17.404C92.8247 17.8347 93.992 18.4693 95.012 19.308C95.3067 19.5347 95.5107 19.7727 95.624 20.022C95.7373 20.2713 95.794 20.5773 95.794 20.94C95.794 21.4387 95.658 21.858 95.386 22.198C95.114 22.538 94.7853 22.708 94.4 22.708C93.9467 22.708 93.482 22.5493 93.006 22.232C92.0313 21.5067 91.1247 21.008 90.286 20.736C89.4473 20.4413 88.518 20.294 87.498 20.294C85.1407 20.294 83.35 21.0307 82.126 22.504C80.9247 23.9773 80.324 26.142 80.324 28.998C80.324 31.8767 80.9247 34.0527 82.126 35.526C83.35 36.9993 85.1407 37.736 87.498 37.736C88.4727 37.736 89.368 37.5887 90.184 37.294C91.0227 36.9993 91.9633 36.5007 93.006 35.798C93.2327 35.662 93.4593 35.5487 93.686 35.458C93.9127 35.3673 94.1507 35.322 94.4 35.322C94.7853 35.322 95.114 35.492 95.386 35.832C95.658 36.172 95.794 36.5913 95.794 37.09C95.794 37.43 95.7373 37.736 95.624 38.008C95.5107 38.2573 95.3067 38.4953 95.012 38.722C93.992 39.5607 92.8247 40.2067 91.51 40.66C90.1953 41.0907 88.79 41.306 87.294 41.306ZM109.871 41.306C107.537 41.306 105.508 40.8073 103.785 39.81C102.085 38.8127 100.771 37.3847 99.8413 35.526C98.912 33.6673 98.4473 31.4913 98.4473 28.998C98.4473 26.5047 98.9007 24.34 99.8073 22.504C100.737 20.6453 102.063 19.2173 103.785 18.22C105.508 17.2227 107.537 16.724 109.871 16.724C112.206 16.724 114.223 17.2227 115.923 18.22C117.646 19.2173 118.961 20.6453 119.867 22.504C120.797 24.34 121.261 26.5047 121.261 28.998C121.261 31.4913 120.797 33.6673 119.867 35.526C118.938 37.3847 117.612 38.8127 115.889 39.81C114.189 40.8073 112.183 41.306 109.871 41.306ZM109.871 37.804C112.07 37.804 113.781 37.0447 115.005 35.526C116.252 34.0073 116.875 31.8313 116.875 28.998C116.875 26.1647 116.252 24 115.005 22.504C113.781 20.9853 112.07 20.226 109.871 20.226C107.65 20.226 105.916 20.9853 104.669 22.504C103.445 24 102.833 26.1647 102.833 28.998C102.833 31.8313 103.445 34.0073 104.669 35.526C105.916 37.0447 107.65 37.804 109.871 37.804ZM146.975 16.86C147.61 16.86 148.12 17.064 148.505 17.472C148.891 17.8573 149.083 18.3787 149.083 19.036V39.164C149.083 39.7987 148.902 40.2973 148.539 40.66C148.177 41.0227 147.701 41.204 147.111 41.204C146.522 41.204 146.057 41.0227 145.717 40.66C145.377 40.2973 145.207 39.7987 145.207 39.164V25.156L139.427 36.104C139.155 36.6027 138.861 36.9767 138.543 37.226C138.226 37.4527 137.852 37.566 137.421 37.566C136.991 37.566 136.617 37.4527 136.299 37.226C135.982 36.9993 135.687 36.6253 135.415 36.104L129.601 25.326V39.164C129.601 39.776 129.42 40.2747 129.057 40.66C128.717 41.0227 128.253 41.204 127.663 41.204C127.074 41.204 126.609 41.0227 126.269 40.66C125.929 40.2973 125.759 39.7987 125.759 39.164V19.036C125.759 18.3787 125.941 17.8573 126.303 17.472C126.689 17.064 127.199 16.86 127.833 16.86C128.717 16.86 129.409 17.3473 129.907 18.322L137.455 32.704L144.969 18.322C145.468 17.3473 146.137 16.86 146.975 16.86ZM175.563 16.86C176.198 16.86 176.708 17.064 177.093 17.472C177.479 17.8573 177.671 18.3787 177.671 19.036V39.164C177.671 39.7987 177.49 40.2973 177.127 40.66C176.765 41.0227 176.289 41.204 175.699 41.204C175.11 41.204 174.645 41.0227 174.305 40.66C173.965 40.2973 173.795 39.7987 173.795 39.164V25.156L168.015 36.104C167.743 36.6027 167.449 36.9767 167.131 37.226C166.814 37.4527 166.44 37.566 166.009 37.566C165.579 37.566 165.205 37.4527 164.887 37.226C164.57 36.9993 164.275 36.6253 164.003 36.104L158.189 25.326V39.164C158.189 39.776 158.008 40.2747 157.645 40.66C157.305 41.0227 156.841 41.204 156.251 41.204C155.662 41.204 155.197 41.0227 154.857 40.66C154.517 40.2973 154.347 39.7987 154.347 39.164V19.036C154.347 18.3787 154.529 17.8573 154.891 17.472C155.277 17.064 155.787 16.86 156.421 16.86C157.305 16.86 157.997 17.3473 158.495 18.322L166.043 32.704L173.557 18.322C174.056 17.3473 174.725 16.86 175.563 16.86ZM192.761 41.306C189.475 41.306 186.981 40.456 185.281 38.756C183.581 37.056 182.731 34.574 182.731 31.31V19.036C182.731 18.3787 182.924 17.8573 183.309 17.472C183.695 17.064 184.216 16.86 184.873 16.86C185.531 16.86 186.052 17.064 186.437 17.472C186.823 17.8573 187.015 18.3787 187.015 19.036V31.548C187.015 33.6107 187.503 35.1747 188.477 36.24C189.452 37.2827 190.88 37.804 192.761 37.804C194.62 37.804 196.037 37.2713 197.011 36.206C197.986 35.1407 198.473 33.588 198.473 31.548V19.036C198.473 18.3787 198.666 17.8573 199.051 17.472C199.437 17.064 199.958 16.86 200.615 16.86C201.273 16.86 201.794 17.064 202.179 17.472C202.565 17.8573 202.757 18.3787 202.757 19.036V31.31C202.757 34.5513 201.907 37.0333 200.207 38.756C198.507 40.456 196.025 41.306 192.761 41.306ZM215.657 41.17C214.977 41.17 214.433 40.9773 214.025 40.592C213.639 40.184 213.447 39.6513 213.447 38.994V20.634H207.259C205.899 20.634 205.219 20.0333 205.219 18.832C205.219 17.6307 205.899 17.03 207.259 17.03H224.021C225.381 17.03 226.061 17.6307 226.061 18.832C226.061 20.0333 225.381 20.634 224.021 20.634H217.833V38.994C217.833 39.6513 217.629 40.184 217.221 40.592C216.835 40.9773 216.314 41.17 215.657 41.17ZM230.83 41.204C230.173 41.204 229.64 41 229.232 40.592C228.847 40.184 228.654 39.6513 228.654 38.994V19.036C228.654 18.3787 228.847 17.8573 229.232 17.472C229.64 17.064 230.173 16.86 230.83 16.86C231.51 16.86 232.043 17.064 232.428 17.472C232.836 17.8573 233.04 18.3787 233.04 19.036V38.994C233.04 39.6513 232.836 40.184 232.428 40.592C232.043 41 231.51 41.204 230.83 41.204ZM240.393 41.204C239.735 41.204 239.203 41 238.795 40.592C238.409 40.184 238.217 39.6513 238.217 38.994V19.104C238.217 18.4467 238.398 17.9367 238.761 17.574C239.146 17.2113 239.667 17.03 240.325 17.03H252.259C253.641 17.03 254.333 17.6193 254.333 18.798C254.333 19.954 253.641 20.532 252.259 20.532H242.535V27.06H251.579C252.961 27.06 253.653 27.6493 253.653 28.828C253.653 29.984 252.961 30.562 251.579 30.562H242.535V38.994C242.535 39.6513 242.342 40.184 241.957 40.592C241.571 41 241.05 41.204 240.393 41.204ZM272.567 17.608C272.975 17.1093 273.463 16.86 274.029 16.86C274.551 16.86 275.015 17.064 275.423 17.472C275.831 17.8573 276.035 18.322 276.035 18.866C276.035 19.3193 275.865 19.75 275.525 20.158L267.807 29.576V38.994C267.807 39.6967 267.603 40.2407 267.195 40.626C266.787 41.0113 266.266 41.204 265.631 41.204C264.974 41.204 264.441 41.0113 264.033 40.626C263.625 40.2407 263.421 39.6967 263.421 38.994V29.576L255.703 20.158C255.363 19.75 255.193 19.3193 255.193 18.866C255.193 18.322 255.397 17.8573 255.805 17.472C256.213 17.064 256.678 16.86 257.199 16.86C257.766 16.86 258.253 17.1093 258.661 17.608L265.631 26.244L272.567 17.608Z" fill="#6876E8"/>
<rect width="60" height="60" rx="15" fill="url(#paint0_linear)"/>
<path d="M31.6321 44C28.8953 44 26.4942 43.432 24.4288 42.296C22.3891 41.16 20.8013 39.5334 19.6653 37.4163C18.5551 35.2992 18 32.8207 18 29.9806C18 27.1664 18.5551 24.7008 19.6653 22.5837C20.8013 20.4666 22.3891 18.84 24.4288 17.704C26.4942 16.568 28.8953 16 31.6321 16C34.911 16 37.7898 16.8649 40.2683 18.5947C40.7072 18.9046 41.0171 19.2402 41.1978 19.6017C41.4043 19.9631 41.5076 20.4278 41.5076 20.9959C41.5076 21.7962 41.2752 22.4804 40.8105 23.0484C40.3716 23.5906 39.8294 23.8617 39.184 23.8617C38.7967 23.8617 38.4481 23.8101 38.1383 23.7068C37.8285 23.5777 37.467 23.384 37.0539 23.1259C36.1503 22.5837 35.2983 22.1964 34.4979 21.964C33.6976 21.7317 32.8714 21.6155 32.0194 21.6155C29.7215 21.6155 28.0046 22.3126 26.8686 23.7068C25.7584 25.0752 25.2033 27.1664 25.2033 29.9806C25.2033 32.8207 25.7584 34.9378 26.8686 36.332C28.0046 37.7003 29.7215 38.3845 32.0194 38.3845C32.7939 38.3845 33.5426 38.2683 34.2656 38.036C34.9885 37.7778 35.9179 37.3905 37.0539 36.8741C37.5961 36.5901 37.9963 36.3965 38.2545 36.2932C38.5127 36.19 38.8225 36.1383 39.184 36.1383C39.8294 36.1383 40.3716 36.4223 40.8105 36.9903C41.2752 37.5325 41.5076 38.2038 41.5076 39.0042C41.5076 39.5463 41.4043 40.0111 41.1978 40.3983C41.0171 40.7598 40.7072 41.0954 40.2683 41.4053C37.7898 43.1351 34.911 44 31.6321 44Z" fill="white"/>
<defs>
<linearGradient id="paint0_linear" x1="9" y1="8.49366e-07" x2="56.5" y2="60" gradientUnits="userSpaceOnUse">
<stop offset="0.0700433" stop-color="#6874E8"/>
<stop offset="1" stop-color="#89FFFD"/>
</linearGradient>
</defs>
</svg>
