<svg width="36" height="36" viewBox="0 0 36 36" fill="none" xmlns="http://www.w3.org/2000/svg">
<g clip-path="url(#clip0)">
<path fill-rule="evenodd" clip-rule="evenodd" d="M2.3565 35.4958L18.153 19.7443L23.721 25.2958L4.9425 35.7073C4.2285 36.1033 3.354 36.0973 2.6445 35.6908L2.3565 35.4958ZM16.56 18.1558L1.5 33.1723V3.13926L16.56 18.1558ZM25.971 11.9503L33.3285 16.0288C34.0515 16.4308 34.5 17.1838 34.5 17.9998C34.5 18.8158 34.0515 19.5688 33.3285 19.9708L25.77 24.1603L19.7475 18.1558L25.971 11.9503ZM2.19 0.649258C2.325 0.518758 2.4765 0.404758 2.6445 0.308758C3.354 -0.0977416 4.2285 -0.103742 4.9425 0.292258L23.922 10.8148L18.153 16.5673L2.19 0.649258Z" fill="white"/>
</g>
<defs>
<clipPath id="clip0">
<rect width="36" height="36" fill="white"/>
</clipPath>
</defs>
</svg>
