<svg width="38" height="38" viewBox="0 0 38 38" fill="none" xmlns="http://www.w3.org/2000/svg">
<g clip-path="url(#clip0)">
<path d="M32.5866 30.1609C31.7157 29.4548 32.0546 27.8952 31.1505 27.1257C32.0261 21.7978 29.5719 17.1016 26.6459 14.0917C24.1902 11.5662 24.9818 9.10892 24.9818 6.9825C24.9818 3.58467 23.5869 0 19.361 0C14.8438 0 13.6056 3.76833 13.5612 5.9185C13.4536 11.0833 14.6047 12.426 11.5821 16.1848C8.02592 20.6071 7.50183 25.0182 8.30458 27.3584C7.92933 27.7954 7.42267 28.2799 6.47583 28.6805C3.86017 29.8205 5.77758 31.7284 5.054 33.0822C4.84817 33.4669 4.75 33.8691 4.75 34.2538C4.75 35.4413 5.69367 36.4689 7.40842 36.3153C9.72167 36.1095 11.856 37.7482 13.2367 37.7482C14.4558 37.7482 15.4565 37.0547 15.922 36.1C18.1023 35.5633 20.7939 35.6313 22.9726 36.1934C23.3637 37.2875 24.4245 38 25.6041 38C28.1865 38 28.6837 35.0724 31.6461 34.0812C32.7132 33.725 33.25 32.6895 33.25 31.7253C33.25 31.1078 33.0299 30.5203 32.5866 30.1609ZM18.1038 13.5913C17.5988 13.5913 17.1807 13.1828 16.5205 12.692C15.6845 12.0713 14.8343 11.7135 14.8438 11.0612C14.8438 10.6131 15.4438 10.4753 16.2197 9.98292C17.0525 9.45567 17.3771 8.9205 18.1973 8.9205C19.0364 8.9205 19.2898 9.34483 20.4298 9.83725C21.5508 10.3233 22.3313 10.5133 22.3313 11.0612C22.3313 11.6233 21.1581 12.0254 20.4978 12.4355C19.5273 13.034 19.0285 13.5913 18.1038 13.5913ZM20.7401 5.33425C22.1366 5.5575 22.2933 8.01167 21.6252 9.21975L21.0631 8.99017C21.3544 8.13042 21.3497 6.71492 20.3743 6.62467C19.7552 6.56767 19.3562 7.38467 19.2708 8.0845C19.0285 7.98317 18.7641 7.91033 18.4427 7.88342C18.5408 6.422 19.4845 5.13317 20.7401 5.33425ZM15.352 5.85833C16.4223 5.59233 17.0541 6.83683 17.0588 8.13042L16.568 8.43125C16.5015 7.88817 16.2593 7.011 15.6513 7.19783C15.0005 7.4005 15.1066 8.91258 15.4692 9.22292L14.9847 9.49208C14.3197 8.37267 14.3212 6.11483 15.352 5.85833ZM12.0033 36.3264C8.89517 34.9125 7.83908 35.2339 7.24533 35.2339C6.01508 35.2339 5.61292 34.3172 6.07525 33.4495C6.46792 32.7132 6.346 31.9422 6.24942 31.3231C6.10058 30.3747 6.07367 30.0659 7.00625 29.6574C8.29667 29.1096 8.86983 28.405 9.29733 27.8778C10.4975 26.3942 11.7088 28.728 12.7015 30.8069C13.3459 32.1543 14.6142 32.8368 15.0053 34.3298C15.3647 35.7089 13.8811 37.1814 12.0033 36.3264ZM23.066 33.3593C20.8747 34.4248 18.0833 34.9141 15.9948 33.8327C15.6861 32.9412 15.1921 32.3649 14.6601 31.7854C15.5135 31.5606 16.1468 30.4966 15.3884 29.4278C14.5793 28.2863 12.9263 27.4898 11.2559 26.1978C9.69317 24.9897 9.19917 22.0115 11.3272 18.6833C10.2901 21.6315 10.8965 24.3485 11.4174 25.1259C11.5251 23.5616 11.6486 20.9491 13.7861 17.8188C14.8643 16.2387 14.8802 14.1518 14.9039 12.8472L15.8856 13.5185C16.6076 14.0521 17.2124 14.6395 18.0801 14.6395C19.3626 14.6395 20.0719 13.9017 21.0599 13.2889C21.4462 13.0514 22.0305 12.8108 22.5213 12.4767C23.3447 16.397 26.7552 21.1122 26.9467 23.7975C27.74 22.1635 26.7219 18.2337 26.7219 18.2337C28.0551 20.2682 28.1612 21.964 28.2198 24.0445C29.1523 24.4261 30.153 25.4204 30.2448 26.7298L29.8569 26.6855C29.6574 25.2304 25.7292 23.0929 25.3761 25.8321C23.4919 26.1187 24.1775 29.1033 23.7975 31.0381C23.6233 31.9232 23.3003 32.623 23.066 33.3593ZM30.7388 33.2943C29.1793 33.896 28.1263 35.1738 27.4028 35.967C26.0094 37.4965 24.1664 36.7634 23.9701 35.3321C23.7627 33.8026 24.5401 32.9682 24.8758 31.2566C25.1813 29.6938 24.8393 27.2887 25.5582 27.0323C26.0253 29.8078 28.8293 28.6409 29.469 27.8841C30.5093 27.8841 30.5963 28.2356 30.8291 29.2093C30.9748 29.8189 31.1758 30.3319 31.7443 30.9352C32.4061 31.6429 32.2034 32.7291 30.7388 33.2943ZM18.0722 12.7015C17.0414 12.7015 16.2703 12.0159 15.6433 11.4839C15.3219 11.2132 15.7225 10.7128 16.0439 10.9852C16.6567 11.5045 17.2742 12.0539 18.0722 12.0539C19.0332 12.0539 19.8803 11.2322 21.0282 10.7793C21.4193 10.6258 21.6426 11.2306 21.2547 11.3842C20.14 11.8228 19.2454 12.7015 18.0722 12.7015Z" fill="white"/>
</g>
<defs>
<clipPath id="clip0">
<rect width="38" height="38" fill="white"/>
</clipPath>
</defs>
</svg>
