<svg width="40" height="40" viewBox="0 0 40 40" fill="none" xmlns="http://www.w3.org/2000/svg">
<g>
<path d="M39.3783 18.8762C39.261 13.7291 37.149 8.93258 33.4322 5.37042C29.7206 1.81365 24.8463 -0.0915513 19.7085 0.00360386C14.569 -0.092752 9.69655 1.81365 5.9852 5.37042C2.26814 8.93258 0.15642 13.7291 0.0387523 18.8759L0.0384521 18.8921V18.9083C0.0654678 24.1535 2.31137 29.1406 6.21063 32.6358V37.3915C6.21063 38.3145 6.8551 39.1184 7.74272 39.3033C7.87419 39.3306 8.00657 39.3444 8.13835 39.3444C8.49555 39.3444 8.84676 39.2445 9.15594 39.0515L12.9781 36.6636C15.1336 37.4185 17.3828 37.8009 19.6695 37.8009H19.6983C19.825 37.8033 19.9502 37.8045 20.0766 37.8045C25.0796 37.8042 29.8094 35.9056 33.4322 32.4341C37.149 28.872 39.261 24.0755 39.3783 18.9287L39.3789 18.9023L39.3783 18.8762ZM31.8356 30.7681C28.5625 33.905 24.2637 35.5832 19.7314 35.4938L19.7188 35.4935H19.7061C17.5794 35.4983 15.4863 35.1282 13.488 34.3955C12.994 34.2144 12.4557 34.2697 12.0112 34.5473L8.51807 36.7293V32.3549C8.51807 31.8668 8.30584 31.4024 7.93573 31.0809C4.41139 28.0171 2.37471 23.5823 2.34619 18.9125C2.45365 14.3864 4.31233 10.1696 7.58182 7.03638C10.8546 3.89986 15.1546 2.22219 19.6857 2.31104L19.7085 2.31134L19.7314 2.31104C24.2628 2.22309 28.5625 3.89986 31.8356 7.03638C35.1021 10.1669 36.9607 14.3804 37.0709 18.9023C36.9607 23.4244 35.1021 27.6376 31.8356 30.7681Z" fill="#6876E8"/>
<path d="M28.1617 13.392H11.2553C10.6183 13.392 10.1017 13.9083 10.1017 14.5455C10.1017 15.1828 10.6183 15.6994 11.2553 15.6994H28.1617C28.7989 15.6994 29.3155 15.1828 29.3155 14.5455C29.3155 13.9083 28.7989 13.392 28.1617 13.392Z" fill="#6876E8"/>
<path d="M28.1617 18.4955H11.2553C10.6183 18.4955 10.1017 19.0121 10.1017 19.6491C10.1017 20.2863 10.6183 20.8029 11.2553 20.8029H28.1617C28.7989 20.8029 29.3155 20.2863 29.3155 19.6491C29.3155 19.0121 28.7989 18.4955 28.1617 18.4955Z" fill="#6876E8"/>
<path d="M28.1618 23.5991H19.8494C19.2124 23.5991 18.6958 24.1157 18.6958 24.753C18.6958 25.39 19.2124 25.9066 19.8494 25.9066H28.1618C28.7991 25.9066 29.3157 25.39 29.3157 24.753C29.3157 24.1157 28.7991 23.5991 28.1618 23.5991Z" fill="#6876E8"/>
</g>
<defs>
<clipPath id="clip0">
<rect width="39.2676" height="39.3443" fill="white"/>
</clipPath>
</defs>
</svg>
