<svg width="40" height="40" viewBox="0 0 40 40" fill="none" xmlns="http://www.w3.org/2000/svg">
<g>
<path d="M19.8032 37.1554C19.2431 37.1554 18.7031 36.9525 18.2823 36.5838C16.6928 35.194 15.1605 33.888 13.8085 32.7359L13.8016 32.7299C9.83779 29.3521 6.41492 26.435 4.03335 23.5614C1.37112 20.349 0.131104 17.3031 0.131104 13.9757C0.131104 10.7429 1.23964 7.76034 3.2523 5.57718C5.28897 3.36821 8.08358 2.15161 11.1222 2.15161C13.3933 2.15161 15.4732 2.86962 17.304 4.28554C18.2279 5.00025 19.0654 5.87496 19.8032 6.89524C20.5414 5.87496 21.3785 5.00025 22.3028 4.28554C24.1335 2.86962 26.2134 2.15161 28.4845 2.15161C31.5229 2.15161 34.3178 3.36821 36.3545 5.57718C38.3671 7.76034 39.4754 10.7429 39.4754 13.9757C39.4754 17.3031 38.2356 20.349 35.5734 23.5611C33.1918 26.435 29.7693 29.3518 25.8061 32.7293C24.4517 33.8832 22.9169 35.1913 21.3239 36.5844C20.9034 36.9525 20.3631 37.1554 19.8032 37.1554ZM11.1222 4.45634C8.73496 4.45634 6.5419 5.40909 4.94648 7.13928C3.32734 8.8956 2.43553 11.3234 2.43553 13.9757C2.43553 16.7742 3.47563 19.2771 5.80767 22.0909C8.06167 24.8108 11.4143 27.6678 15.2961 30.976L15.3033 30.982C16.6604 32.1386 18.1988 33.4497 19.7999 34.8497C21.4107 33.447 22.9514 32.1338 24.3112 30.9754C28.1928 27.6672 31.5451 24.8108 33.7991 22.0909C36.1308 19.2771 37.1709 16.7742 37.1709 13.9757C37.1709 11.3234 36.2791 8.8956 34.66 7.13928C33.0649 5.40909 30.8715 4.45634 28.4845 4.45634C26.7357 4.45634 25.1301 5.01226 23.7124 6.10849C22.449 7.08585 21.5689 8.32136 21.0529 9.18586C20.7875 9.63042 20.3204 9.89577 19.8032 9.89577C19.286 9.89577 18.819 9.63042 18.5536 9.18586C18.0379 8.32136 17.1578 7.08585 15.8941 6.10849C14.4764 5.01226 12.8707 4.45634 11.1222 4.45634Z" fill="#F6BD60"/>
</g>
<defs>
<clipPath id="clip0">
<rect width="39.3443" height="39.3443" fill="white" transform="translate(0.131104)"/>
</clipPath>
</defs>
</svg>
