<svg width="40" height="40" viewBox="0 0 40 40" fill="none" xmlns="http://www.w3.org/2000/svg">
<g>
<path d="M37.6556 0H33.1602C32.1033 0 31.2436 0.859693 31.2436 1.9166V3.56635C27.8027 7.36383 23.3464 8.99976 16.434 9.02018C14.2253 9.02648 12.0632 9.936 10.5017 11.5152C10.2694 11.7502 10.0535 11.9964 9.85361 12.2521H4.83203C2.31238 12.2521 0.262207 14.302 0.262207 16.822C0.262207 19.3416 2.31238 21.3918 4.83203 21.3918H9.33221C10.1994 22.8161 11.4899 23.9567 13.0252 24.636C12.9103 27.0623 12.267 29.2845 11.1813 30.9589C9.91935 32.9049 8.68684 33.1957 8.06429 33.1957C6.36921 33.1957 4.99022 34.5747 4.99022 36.2698C4.99022 37.9652 6.36921 39.3442 8.06429 39.3442C11.2935 39.3442 14.2325 37.5542 16.34 34.3043C17.93 31.8525 18.9023 28.7475 19.1379 25.4303C21.5309 25.6104 23.5808 26.0318 25.3488 26.7069C27.6178 27.5729 29.5488 28.9078 31.2433 30.7806V31.7273C31.2433 32.7839 32.1033 33.6439 33.1599 33.6439H37.6553C38.7122 33.6439 39.5719 32.7839 39.5719 31.7273V1.9166C39.5722 0.859693 38.7122 0 37.6556 0V0ZM4.83203 19.0859C3.58361 19.0859 2.56813 18.0701 2.56813 16.822C2.56813 15.5735 3.58361 14.5578 4.83203 14.5578H8.59199C8.29332 15.4126 8.14143 16.3177 8.14923 17.2431C8.15464 17.8768 8.23328 18.4939 8.37677 19.0859H4.83203ZM14.4054 33.0496C12.7374 35.622 10.4855 37.0386 8.06429 37.0386C7.64074 37.0386 7.29584 36.6937 7.29584 36.2698C7.29584 35.846 7.64074 35.5014 8.06429 35.5014C9.15481 35.5014 11.2608 35.0742 13.1159 32.2133C14.3403 30.3252 15.0973 27.8974 15.2975 25.2658C15.6271 25.3066 15.9621 25.3279 16.3019 25.3279C16.4811 25.3279 16.6576 25.33 16.8335 25.3321C16.6189 28.2381 15.776 30.9364 14.4054 33.0496ZM31.2427 27.5612C29.7277 26.263 28.0516 25.2703 26.1713 24.5526C23.4736 23.523 20.2453 23.0223 16.3019 23.0223C13.1048 23.0223 10.4819 20.421 10.4549 17.2236C10.4423 15.7008 11.0411 14.2495 12.1415 13.1364C13.2744 11.9904 14.8416 11.3306 16.4409 11.3258C20.341 11.3144 23.5388 10.8074 26.2166 9.77601C28.0777 9.0592 29.7394 8.07133 31.2433 6.78299L31.2427 27.5612ZM37.2662 31.3377H33.5492V2.30562H37.2662V31.3377Z" fill="#80DBF7"/>
</g>
<defs>
<clipPath id="clip0">
<rect width="39.3442" height="39.3443" fill="white" transform="translate(0.262207)"/>
</clipPath>
</defs>
</svg>
