<svg width="40" height="40" viewBox="0 0 40 40" fill="none" xmlns="http://www.w3.org/2000/svg">
<g>
<path d="M21.3003 39.3443H18.831C16.8339 39.3443 15.2091 37.7195 15.2091 35.7224V34.887C14.36 34.6157 13.5351 34.2733 12.7426 33.8632L12.1506 34.4552C10.7167 35.8908 8.41994 35.8487 7.02775 34.4547L5.28254 32.7095C3.88789 31.3164 3.84778 29.0204 5.283 27.5867L5.87455 26.9952C5.46443 26.2027 5.12209 25.3779 4.85075 24.5287H4.01546C2.01843 24.5287 0.393555 22.9039 0.393555 20.9068V18.4375C0.393555 16.4404 2.01843 14.8156 4.01553 14.8156H4.85083C5.12217 13.9664 5.46451 13.1416 5.87463 12.3491L5.28262 11.7572C3.84824 10.3243 3.88782 8.02807 5.28308 6.63435L7.02844 4.88906C8.42386 3.49173 10.7201 3.45684 12.1512 4.88952L12.7427 5.48099C13.5352 5.07095 14.3601 4.72853 15.2091 4.4572V3.6219C15.2091 1.62479 16.8339 0 18.8311 0H21.3003C23.2974 0 24.9222 1.62479 24.9222 3.6219V4.45727C25.7713 4.72853 26.5962 5.07095 27.3887 5.48107L27.9807 4.88906C29.4146 3.45346 31.7114 3.49557 33.1035 4.8896L34.8488 6.63473C36.2434 8.02784 36.2835 10.3239 34.8483 11.7576L34.2567 12.3491C34.6669 13.1416 35.0092 13.9664 35.2805 14.8156H36.1158C38.1129 14.8156 39.7378 16.4404 39.7378 18.4375V20.9068C39.7378 22.9039 38.1129 24.5287 36.1158 24.5287H35.2805C35.0092 25.3778 34.6669 26.2027 34.2567 26.9952L34.8488 27.5872C36.2831 29.02 36.2436 31.3163 34.8483 32.71L33.1029 34.4553C31.7075 35.8526 29.4113 35.8875 27.9802 34.4548L27.3887 33.8633C26.5962 34.2734 25.7713 34.6158 24.9222 34.8871V35.7225C24.9222 37.7195 23.2974 39.3443 21.3003 39.3443ZM13.128 31.4424C14.2289 32.0935 15.4138 32.5853 16.6498 32.9043C17.1588 33.0357 17.5145 33.4947 17.5145 34.0204V35.7224C17.5145 36.4483 18.1052 37.0389 18.8311 37.0389H21.3003C22.0263 37.0389 22.617 36.4483 22.617 35.7224V34.0204C22.617 33.4947 22.9726 33.0357 23.4816 32.9043C24.7176 32.5853 25.9025 32.0935 27.0035 31.4424C27.4565 31.1745 28.0332 31.2473 28.4054 31.6195L29.6109 32.8251C30.1307 33.3455 30.9654 33.3334 31.4724 32.8256L33.2188 31.0793C33.7246 30.5741 33.7415 29.7393 33.2193 29.2177L32.0132 28.0117C31.6411 27.6396 31.5683 27.0628 31.8361 26.6099C32.4872 25.509 32.979 24.3241 33.298 23.088C33.4294 22.579 33.8884 22.2234 34.414 22.2234H36.1159C36.8419 22.2234 37.4326 21.6328 37.4326 20.9069V18.4376C37.4326 17.7116 36.8419 17.121 36.1159 17.121H34.414C33.8884 17.121 33.4294 16.7653 33.298 16.2564C32.979 15.0204 32.4871 13.8354 31.8361 12.7346C31.5683 12.2816 31.6411 11.7048 32.0132 11.3328L33.2188 10.1272C33.74 9.60661 33.7264 8.77208 33.2193 8.2656L31.473 6.51931C30.9668 6.01245 30.132 5.99762 29.6114 6.51885L28.4054 7.72492C28.0334 8.09708 27.4564 8.16993 27.0036 7.90205C25.9026 7.25095 24.7177 6.75907 23.4817 6.44009C22.9727 6.30876 22.6171 5.84969 22.6171 5.324V3.6219C22.6171 2.89595 22.0264 2.30533 21.3004 2.30533H18.8312C18.1052 2.30533 17.5145 2.89595 17.5145 3.6219V5.32385C17.5145 5.84954 17.1589 6.30861 16.6499 6.43993C15.4139 6.75891 14.229 7.25079 13.128 7.9019C12.675 8.1697 12.0982 8.09685 11.7262 7.72477L10.5206 6.51916C10.0009 5.99877 9.1661 6.01084 8.65915 6.51862L6.91271 8.26498C6.40693 8.77016 6.39002 9.60492 6.91225 10.1265L8.11832 11.3326C8.4904 11.7047 8.56325 12.2815 8.29545 12.7344C7.64435 13.8353 7.15255 15.0202 6.83356 16.2563C6.70216 16.7653 6.24309 17.1208 5.71748 17.1208H4.01553C3.28958 17.1209 2.69888 17.7115 2.69888 18.4375V20.9068C2.69888 21.6327 3.28958 22.2234 4.01553 22.2234H5.7174C6.24309 22.2234 6.70208 22.579 6.83349 23.0879C7.15247 24.324 7.64435 25.5089 8.29537 26.6098C8.56318 27.0627 8.49033 27.6395 8.11825 28.0116L6.91264 29.2172C6.39148 29.7377 6.40508 30.5723 6.91218 31.0787L8.65846 32.825C9.16464 33.3319 9.99947 33.3467 10.52 32.8255L11.726 31.6194C12.0002 31.3453 12.5706 31.1127 13.128 31.4424Z" fill="#F5CAC3"/>
<path d="M20.0663 28.2326C15.346 28.2326 11.5059 24.3924 11.5059 19.6721C11.5059 14.9519 15.346 11.1117 20.0663 11.1117C24.7866 11.1117 28.6268 14.9519 28.6268 19.6721C28.6268 24.3924 24.7866 28.2326 20.0663 28.2326ZM20.0663 13.417C16.6172 13.417 13.8112 16.2231 13.8112 19.6721C13.8112 23.1212 16.6172 25.9273 20.0663 25.9273C23.5154 25.9273 26.3214 23.1212 26.3214 19.6721C26.3214 16.2231 23.5155 13.417 20.0663 13.417Z" fill="#F5CAC3"/>
</g>
<defs>
<clipPath id="clip0">
<rect width="39.3443" height="39.3443" fill="white" transform="translate(0.393555)"/>
</clipPath>
</defs>
</svg>
