<svg width="50" height="27" viewBox="0 0 50 27" fill="none" xmlns="http://www.w3.org/2000/svg">
<g opacity="0.4">
<path d="M1.40991 6.68161L6.19294 1.89858C6.68921 1.40231 7.49383 1.40231 7.9901 1.89858L11.8745 5.78302C12.3708 6.2793 13.1754 6.2793 13.6717 5.78302L17.5561 1.89858C18.0524 1.40231 18.857 1.40231 19.3533 1.89858L23.2378 5.78302C23.734 6.2793 24.5386 6.2793 25.0349 5.78302L28.9194 1.89858C29.4156 1.40231 30.2203 1.40231 30.7165 1.89858L35.1691 6.35118C35.6654 6.84746 36.47 6.84746 36.9663 6.35119L41.4189 1.89858C41.9152 1.40231 42.7198 1.40231 43.2161 1.89858L48.5672 7.24977" stroke="white" stroke-width="2.54157" stroke-linecap="round" stroke-linejoin="round"/>
<path d="M1.40918 15.5354L6.1922 10.7523C6.68848 10.2561 7.49309 10.2561 7.98937 10.7523L11.8738 14.6368C12.3701 15.1331 13.1747 15.1331 13.671 14.6368L17.5554 10.7523C18.0517 10.2561 18.8563 10.2561 19.3526 10.7523L23.237 14.6368C23.7333 15.1331 24.5379 15.1331 25.0342 14.6368L28.9186 10.7523C29.4149 10.2561 30.2195 10.2561 30.7158 10.7523L35.1684 15.2049C35.6647 15.7012 36.4693 15.7012 36.9656 15.2049L41.4182 10.7523C41.9144 10.2561 42.7191 10.2561 43.2153 10.7523L48.5665 16.1035" stroke="white" stroke-width="2.54157" stroke-linecap="round" stroke-linejoin="round"/>
<path d="M1.40918 24.3891L6.1922 19.6061C6.68848 19.1098 7.49309 19.1098 7.98937 19.6061L11.8738 23.4905C12.3701 23.9868 13.1747 23.9868 13.671 23.4905L17.5554 19.6061C18.0517 19.1098 18.8563 19.1098 19.3526 19.6061L23.237 23.4905C23.7333 23.9868 24.5379 23.9868 25.0342 23.4905L28.9186 19.6061C29.4149 19.1098 30.2195 19.1098 30.7158 19.6061L35.1684 24.0587C35.6647 24.555 36.4693 24.555 36.9656 24.0587L41.4182 19.6061C41.9144 19.1098 42.7191 19.1098 43.2153 19.6061L48.5665 24.9573" stroke="white" stroke-width="2.54157" stroke-linecap="round" stroke-linejoin="round"/>
</g>
</svg>
